<svg xmlns="http://www.w3.org/2000/svg" viewBox="0 0 320 240" fill="none" role="img" aria-label="Modern madáretető">
  <line x1="200" y1="14" x2="200" y2="40" stroke="#8a6444" stroke-width="4"/>
  <!-- flat slanted roof -->
  <polygon points="92,64 232,40 232,54 92,78" fill="#3a3a3a"/>
  <rect x="104" y="74" width="10" height="80" fill="#caa06a"/>
  <rect x="206" y="56" width="10" height="98" fill="#caa06a"/>
  <rect x="114" y="88" width="92" height="58" fill="#cbb78f"/>
  <rect x="114" y="88" width="92" height="58" fill="none" stroke="#6b4a2f" stroke-width="2" opacity=".2"/>
  <!-- opening -->
  <circle cx="160" cy="112" r="13" fill="#3a3a3a" opacity=".85"/>
  <rect x="92" y="154" width="136" height="13" rx="3" fill="#c9962f"/>
  <rect x="86" y="167" width="148" height="9" rx="3" fill="#caa06a"/>
  <ellipse cx="160" cy="154" rx="36" ry="6" fill="#c9962f"/>
  <g transform="translate(198,138)">
    <ellipse cx="0" cy="0" rx="11" ry="8" fill="#2f6e4f"/>
    <circle cx="7" cy="-4" r="5" fill="#2f6e4f"/>
    <circle cx="9" cy="-5" r="1.5" fill="#fff"/>
    <polygon points="14,-5 21,-3 14,-1" fill="#c9962f"/>
  </g>
</svg>
